<?xml version="1.0" standalone="no"?><!DOCTYPE svg PUBLIC "-//W3C//DTD SVG 1.1//EN" "http://www.w3.org/Graphics/SVG/1.1/DTD/svg11.dtd"><svg height="1024" node-id="1" sillyvg="true" template-height="1024" template-width="1024" version="1.1" viewBox="0 0 1024 1024" width="1024" xmlns="http://www.w3.org/2000/svg" xmlns:xlink="http://www.w3.org/1999/xlink"><defs node-id="18"></defs><path d="M 0.00 0.00 L 1024.00 0.00 L 1024.00 1024.00 L 0.00 1024.00 Z" fill="#ffffff" fill-rule="nonzero" node-id="20" stroke="none" target-height="1024" target-width="1024" target-x="0" target-y="0"></path><path d="M 586.30 417.60 L 594.80 404.00 L 604.70 391.10 L 610.10 385.10 L 615.80 379.30 L 621.80 373.90 L 628.00 368.80 L 634.60 364.20 L 641.40 360.00 L 648.40 356.30 L 655.80 353.00 L 661.70 350.80 L 667.90 349.00 L 674.20 347.60 L 680.70 346.60 L 687.40 346.00 L 759.80 345.70 L 783.90 344.70 L 796.00 343.70 L 807.90 342.30 L 819.90 340.30 L 831.80 337.70 L 819.90 368.50 L 813.60 383.90 L 806.90 399.20 L 802.10 409.20 L 791.60 428.60 L 785.80 437.90 L 779.60 446.90 L 772.90 455.60 L 767.60 461.90 L 761.90 467.90 L 755.90 473.70 L 749.60 479.20 L 744.30 483.20 L 733.40 490.10 L 727.80 493.10 L 720.00 496.60 L 712.00 499.60 L 703.90 502.20 L 695.60 504.40 L 678.60 507.80 L 665.70 509.60 L 652.80 510.90 L 627.20 512.90 L 626.70 503.80 L 625.70 495.00 L 624.10 486.30 L 621.90 477.80 L 619.20 469.40 L 615.90 461.30 L 612.20 453.40 L 607.90 445.70 L 603.20 438.30 L 598.00 431.10 L 592.40 424.30 L 586.30 417.60 Z" fill="#fefefe" fill-rule="nonzero" node-id="22" stroke="none" target-height="175.20001" target-width="245.5" target-x="586.3" target-y="337.7"></path><path d="M 279.40 592.30 L 286.30 586.30 L 293.40 580.70 L 300.80 575.40 L 308.30 570.60 L 324.10 561.80 L 340.50 554.30 L 351.80 550.10 L 363.20 546.30 L 374.90 543.10 L 386.60 540.40 L 398.50 538.20 L 410.40 536.50 L 414.00 544.40 L 418.00 552.10 L 422.30 559.50 L 427.00 566.70 L 432.00 573.70 L 437.30 580.40 L 443.00 586.80 L 449.00 592.80 L 455.40 598.60 L 462.20 604.10 L 458.80 612.90 L 455.00 621.40 L 450.80 629.80 L 446.20 638.10 L 441.20 646.10 L 435.80 653.80 L 430.00 661.20 L 423.90 668.30 L 417.30 675.10 L 410.50 681.50 L 403.40 687.50 L 395.90 693.10 L 388.10 698.30 L 380.10 702.90 L 371.80 707.00 L 363.20 710.60 L 356.10 713.10 L 349.00 715.20 L 341.60 716.90 L 334.10 718.20 L 326.40 719.10 L 274.60 721.50 L 257.40 722.70 L 234.50 725.10 L 211.90 728.80 L 200.60 731.30 L 189.40 734.20 L 194.30 720.90 L 199.50 707.70 L 205.20 694.70 L 211.30 681.90 L 217.80 669.30 L 224.90 657.00 L 230.50 648.00 L 242.80 630.70 L 249.40 622.50 L 256.30 614.50 L 263.60 606.80 L 271.30 599.40 L 279.40 592.30 Z" fill="#fefefe" fill-rule="nonzero" node-id="24" stroke="none" target-height="197.70001" target-width="272.80002" target-x="189.4" target-y="536.5"></path><path d="M 566.70 607.60 L 575.00 601.00 L 582.90 594.00 L 590.40 586.60 L 597.40 578.80 L 604.10 570.60 L 610.20 562.00 L 615.90 553.10 L 621.10 543.80 L 631.40 545.00 L 641.50 546.60 L 651.40 548.70 L 661.20 551.20 L 670.80 554.20 L 680.30 557.60 L 689.60 561.40 L 698.60 565.70 L 707.50 570.30 L 716.20 575.30 L 726.70 582.10 L 736.90 589.40 L 746.70 597.20 L 756.10 605.50 L 765.10 614.30 L 773.60 623.50 L 781.70 633.10 L 789.40 643.20 L 796.60 653.60 L 803.20 664.30 L 809.40 675.30 L 815.00 686.70 L 820.10 698.30 L 824.60 710.10 L 828.50 722.10 L 831.80 734.30 L 810.60 729.00 L 789.30 725.30 L 775.00 723.50 L 760.60 722.10 L 746.20 721.20 L 702.80 719.80 L 695.10 719.10 L 687.60 718.10 L 680.30 716.70 L 673.10 714.80 L 666.00 712.50 L 657.40 709.10 L 649.10 705.20 L 641.00 700.70 L 633.10 695.70 L 625.60 690.20 L 618.40 684.30 L 611.60 678.00 L 605.00 671.30 L 598.80 664.20 L 593.00 656.90 L 587.60 649.20 L 582.60 641.30 L 577.90 633.10 L 573.70 624.70 L 570.00 616.20 L 566.70 607.60 Z" fill="#fefefe" fill-rule="nonzero" node-id="26" stroke="none" target-height="190.5" target-width="265.09998" target-x="566.7" target-y="543.8"></path><path d="M 418.40 278.10 L 419.80 271.60 L 421.50 265.40 L 423.50 259.40 L 426.00 253.70 L 429.80 246.30 L 434.00 239.20 L 438.80 232.30 L 449.50 219.30 L 455.30 213.00 L 464.40 203.80 L 492.20 176.90 L 498.20 170.80 L 509.20 158.30 L 517.30 167.20 L 525.90 176.00 L 552.70 201.60 L 561.40 210.30 L 569.80 219.20 L 577.70 228.50 L 582.60 234.90 L 587.10 241.60 L 591.20 248.50 L 594.90 255.70 L 598.10 263.20 L 600.80 271.20 L 601.60 278.30 L 602.00 285.40 L 601.90 292.40 L 601.30 299.20 L 599.90 308.40 L 597.80 317.40 L 595.20 326.30 L 592.10 335.10 L 584.90 352.50 L 560.80 403.40 L 552.40 401.00 L 544.10 399.10 L 535.70 397.70 L 527.30 396.80 L 518.80 396.30 L 510.30 396.30 L 501.90 396.70 L 493.50 397.70 L 485.10 399.20 L 476.60 401.20 L 474.10 395.10 L 471.20 389.20 L 468.00 383.40 L 462.60 375.00 L 438.60 342.50 L 433.00 334.40 L 426.50 323.10 L 423.80 317.30 L 421.50 311.30 L 419.70 305.10 L 418.40 298.70 L 417.60 288.90 L 418.40 278.10 Z" fill="#fefeff" fill-rule="nonzero" node-id="28" stroke="none" target-height="245.09999" target-width="184.4" target-x="417.6" target-y="158.3"></path><path d="M 190.70 336.50 L 202.90 339.20 L 215.20 341.30 L 227.50 342.80 L 239.80 343.90 L 264.60 345.10 L 339.10 345.50 L 348.00 346.20 L 356.60 347.40 L 365.00 349.30 L 373.20 351.80 L 381.20 354.80 L 389.00 358.30 L 396.60 362.30 L 404.00 366.80 L 411.10 371.70 L 418.00 376.90 L 424.60 382.50 L 430.90 388.50 L 442.70 401.30 L 453.20 415.00 L 446.90 421.00 L 441.20 427.30 L 435.80 433.80 L 430.80 440.70 L 426.20 447.80 L 422.10 455.20 L 418.50 462.70 L 415.30 470.60 L 412.60 478.60 L 410.40 486.80 L 408.80 495.20 L 407.60 503.80 L 394.40 502.30 L 381.10 500.40 L 367.80 498.00 L 357.90 495.80 L 338.50 490.40 L 328.90 487.10 L 319.50 483.50 L 310.30 479.50 L 301.40 475.00 L 292.60 470.10 L 284.20 464.80 L 276.00 459.00 L 268.20 452.60 L 252.70 438.10 L 245.20 430.10 L 238.30 421.80 L 231.80 413.10 L 225.60 404.20 L 219.80 395.00 L 209.10 376.00 L 204.20 366.20 L 197.30 351.40 L 190.70 336.50 Z" fill="#fefeff" fill-rule="nonzero" node-id="30" stroke="none" target-height="167.29999" target-width="262.5" target-x="190.7" target-y="336.5"></path><path d="M 430.00 716.80 L 454.50 680.40 L 467.50 659.70 L 476.60 642.50 L 480.50 633.60 L 483.90 624.40 L 486.80 614.90 L 504.50 615.90 L 522.20 616.50 L 540.00 616.50 L 542.80 624.80 L 545.90 632.80 L 549.50 640.70 L 555.30 652.30 L 580.70 697.70 L 586.60 709.30 L 587.60 717.20 L 588.00 724.90 L 587.90 732.30 L 587.10 739.50 L 585.90 746.70 L 584.20 753.70 L 582.00 760.60 L 579.40 767.30 L 575.40 776.10 L 570.70 784.70 L 565.50 793.20 L 553.90 809.40 L 547.60 817.30 L 537.80 828.90 L 508.30 861.90 L 499.50 851.30 L 464.70 811.40 L 453.10 796.20 L 447.80 788.30 L 443.00 780.30 L 438.80 772.10 L 436.00 765.70 L 433.70 759.30 L 431.80 752.60 L 430.30 745.80 L 429.30 739.00 L 429.00 731.90 L 429.20 724.50 L 430.00 716.80 Z" fill="#fefeff" fill-rule="nonzero" node-id="32" stroke="none" target-height="247" target-width="159" target-x="429" target-y="614.9"></path><path d="M 389.10 238.80 L 394.30 229.60 L 399.90 220.80 L 405.80 212.20 L 418.50 195.80 L 435.70 176.30 L 478.60 130.60 L 495.60 110.80 L 508.00 94.00 L 514.40 102.40 L 527.80 118.60 L 549.40 141.80 L 582.60 175.80 L 600.10 195.30 L 613.00 211.80 L 618.90 220.40 L 624.50 229.30 L 629.80 238.60 L 639.30 235.70 L 649.00 233.20 L 658.70 231.20 L 673.30 228.60 L 688.10 226.60 L 732.60 221.50 L 757.20 217.90 L 776.60 213.80 L 786.10 211.10 L 795.60 208.00 L 805.00 204.40 L 802.60 227.50 L 797.80 256.00 L 794.30 273.00 L 786.30 306.90 L 797.70 304.60 L 809.00 301.90 L 820.10 298.80 L 836.70 293.70 L 853.20 288.00 L 885.90 275.90 L 883.10 290.70 L 879.90 305.30 L 876.30 319.80 L 872.30 334.30 L 867.90 348.60 L 863.10 362.70 L 857.90 376.80 L 852.30 390.70 L 861.70 397.30 L 879.90 411.30 L 888.70 418.80 L 900.00 429.00 L 911.00 439.70 L 921.70 450.70 L 932.00 462.00 L 952.00 485.20 L 943.90 491.80 L 936.10 498.60 L 928.50 505.90 L 884.30 551.40 L 876.70 558.70 L 861.00 572.30 L 852.80 578.60 L 844.20 584.40 L 835.20 589.60 L 828.30 593.10 L 821.10 596.10 L 813.60 598.80 L 805.70 601.10 L 812.80 609.60 L 819.40 618.20 L 825.70 627.10 L 831.50 636.10 L 837.00 645.40 L 843.40 657.30 L 849.20 669.50 L 854.50 681.90 L 859.30 694.50 L 863.50 707.40 L 867.30 720.30 L 870.70 733.50 L 873.60 746.80 L 876.10 760.20 L 878.20 773.60 L 881.20 800.50 L 850.20 787.30 L 818.90 774.70 L 803.10 768.90 L 787.10 763.70 L 794.20 797.10 L 797.40 813.80 L 800.20 830.70 L 802.50 847.60 L 804.20 864.60 L 795.20 860.40 L 786.10 856.70 L 776.90 853.60 L 758.00 848.50 L 734.00 843.70 L 690.30 836.90 L 675.80 834.30 L 661.60 831.20 L 652.10 828.80 L 642.80 825.90 L 633.70 822.70 L 624.70 819.00 L 615.80 814.60 L 607.10 809.70 L 595.00 825.00 L 582.60 840.10 L 531.80 899.50 L 519.60 914.70 L 507.90 930.40 L 497.70 916.70 L 476.40 889.90 L 460.00 870.30 L 409.90 811.90 L 402.10 815.80 L 386.20 822.50 L 378.20 825.20 L 367.30 828.50 L 356.30 831.30 L 345.20 833.80 L 328.40 836.90 L 277.50 845.10 L 255.20 849.60 L 244.10 852.30 L 233.20 855.50 L 222.30 859.20 L 211.70 863.50 L 213.70 846.90 L 216.10 830.30 L 218.90 813.90 L 223.60 789.30 L 228.80 764.80 L 198.30 776.20 L 137.90 800.30 L 141.80 773.30 L 147.10 746.60 L 150.40 733.30 L 154.10 720.20 L 158.20 707.30 L 162.70 694.50 L 167.70 681.80 L 173.20 669.40 L 179.10 657.30 L 185.60 645.30 L 192.50 633.70 L 200.00 622.30 L 208.00 611.20 L 216.60 600.50 L 208.90 598.20 L 201.40 595.50 L 194.30 592.40 L 187.50 588.90 L 178.70 583.70 L 170.30 578.00 L 162.20 571.80 L 146.70 558.30 L 139.20 551.10 L 106.50 517.40 L 95.40 506.40 L 87.80 499.40 L 80.00 492.60 L 72.00 486.30 L 81.90 474.40 L 102.40 451.30 L 113.10 440.10 L 124.20 429.30 L 135.60 418.90 L 144.30 411.30 L 162.70 397.10 L 172.20 390.40 L 166.20 378.10 L 160.60 365.60 L 155.70 352.90 L 151.20 340.10 L 147.10 327.00 L 143.60 313.80 L 137.50 287.20 L 135.10 273.70 L 165.90 285.80 L 181.50 291.50 L 197.20 296.80 L 218.50 302.90 L 229.30 305.30 L 218.70 254.80 L 215.60 237.90 L 212.30 215.20 L 211.10 203.70 L 220.70 207.20 L 230.30 210.30 L 249.90 215.10 L 269.70 218.60 L 284.70 220.70 L 329.90 226.10 L 344.90 228.30 L 359.80 231.00 L 369.60 233.20 L 379.40 235.80 L 389.10 238.80 Z M 418.40 278.10 L 417.60 288.90 L 418.40 298.70 L 419.70 305.10 L 421.50 311.30 L 423.80 317.30 L 426.50 323.10 L 433.00 334.40 L 438.60 342.50 L 462.60 375.00 L 468.00 383.40 L 471.20 389.20 L 474.10 395.10 L 476.60 401.20 L 485.10 399.20 L 493.50 397.70 L 501.90 396.70 L 510.30 396.30 L 518.80 396.30 L 527.30 396.80 L 535.70 397.70 L 544.10 399.10 L 552.40 401.00 L 560.80 403.40 L 566.50 390.90 L 578.90 365.40 L 588.70 343.90 L 595.20 326.30 L 597.80 317.40 L 599.90 308.40 L 601.30 299.20 L 601.90 292.40 L 602.00 285.40 L 601.60 278.30 L 600.80 271.20 L 598.10 263.20 L 594.90 255.70 L 591.20 248.50 L 587.10 241.60 L 582.60 234.90 L 577.70 228.50 L 569.80 219.20 L 561.40 210.30 L 552.70 201.60 L 525.90 176.00 L 517.30 167.20 L 509.20 158.30 L 498.20 170.80 L 492.20 176.90 L 464.40 203.80 L 455.30 213.00 L 449.50 219.30 L 438.80 232.30 L 434.00 239.20 L 429.80 246.30 L 426.00 253.70 L 423.50 259.40 L 421.50 265.40 L 419.80 271.60 L 418.40 278.10 Z M 265.70 259.20 L 274.00 306.30 L 288.90 305.40 L 303.80 305.10 L 318.70 305.40 L 333.50 306.30 L 348.30 307.70 L 363.10 309.70 L 377.80 312.30 L 392.40 315.50 L 390.80 311.60 L 385.30 294.40 L 383.50 290.30 L 380.50 285.50 L 376.50 281.50 L 374.00 279.80 L 362.90 274.70 L 354.50 271.60 L 345.90 269.00 L 328.40 265.30 L 306.00 262.60 L 265.70 259.20 Z M 641.30 281.90 L 638.00 287.80 L 635.30 295.90 L 630.00 321.00 L 639.10 317.50 L 648.40 314.50 L 657.70 312.00 L 667.10 309.90 L 679.70 307.80 L 692.50 306.40 L 705.30 305.50 L 731.20 305.10 L 744.10 305.50 L 751.00 259.50 L 708.80 263.70 L 694.80 265.50 L 685.50 267.10 L 676.40 269.10 L 660.70 273.50 L 647.60 278.70 L 641.30 281.90 Z M 190.70 336.50 L 197.30 351.40 L 209.10 376.00 L 219.80 395.00 L 225.60 404.20 L 231.80 413.10 L 238.30 421.80 L 245.30 430.10 L 252.70 438.10 L 260.60 445.70 L 268.20 452.60 L 276.00 459.00 L 284.20 464.80 L 292.60 470.10 L 301.40 475.00 L 310.30 479.50 L 319.50 483.50 L 328.90 487.10 L 338.50 490.40 L 357.90 495.80 L 367.80 498.00 L 381.10 500.40 L 394.40 502.30 L 407.60 503.80 L 408.80 495.20 L 410.40 486.80 L 412.60 478.60 L 415.30 470.60 L 418.50 462.70 L 422.10 455.20 L 426.20 447.80 L 430.80 440.70 L 435.80 433.80 L 441.20 427.30 L 446.90 421.00 L 453.20 415.00 L 442.70 401.30 L 436.90 394.80 L 430.90 388.50 L 424.60 382.50 L 418.00 376.90 L 411.10 371.70 L 404.00 366.80 L 396.60 362.30 L 389.00 358.30 L 381.20 354.80 L 373.20 351.80 L 365.00 349.30 L 356.60 347.40 L 348.00 346.20 L 339.10 345.50 L 264.60 345.10 L 239.80 343.90 L 227.50 342.80 L 215.20 341.30 L 203.00 339.20 L 190.70 336.50 Z M 586.30 417.60 L 592.40 424.30 L 598.00 431.10 L 603.20 438.30 L 607.90 445.70 L 612.20 453.40 L 615.90 461.30 L 619.20 469.40 L 621.90 477.80 L 624.10 486.30 L 625.70 495.00 L 626.70 503.80 L 627.20 512.90 L 652.80 510.90 L 665.70 509.60 L 687.20 506.30 L 703.90 502.20 L 712.00 499.60 L 720.00 496.60 L 727.80 493.10 L 739.00 486.90 L 744.30 483.20 L 749.60 479.20 L 755.90 473.70 L 761.90 467.90 L 767.60 461.90 L 772.90 455.60 L 779.60 446.90 L 785.80 437.90 L 791.60 428.60 L 802.10 409.20 L 806.90 399.20 L 813.60 383.90 L 819.90 368.50 L 831.80 337.70 L 819.90 340.30 L 807.90 342.30 L 796.00 343.70 L 783.90 344.70 L 759.80 345.70 L 687.40 346.00 L 680.70 346.60 L 674.20 347.60 L 667.90 349.00 L 661.70 350.80 L 655.80 353.00 L 648.40 356.30 L 641.40 360.00 L 634.60 364.20 L 628.00 368.80 L 621.80 373.90 L 615.80 379.30 L 610.10 385.10 L 604.70 391.10 L 594.80 404.00 L 586.30 417.60 Z M 129.90 479.60 L 148.90 501.20 L 158.80 512.00 L 168.90 522.50 L 175.90 529.20 L 183.20 535.60 L 190.60 541.60 L 198.40 547.30 L 206.40 552.40 L 214.80 556.90 L 221.30 560.00 L 228.00 562.60 L 235.00 564.80 L 242.30 566.60 L 251.60 561.80 L 260.70 556.50 L 296.30 533.50 L 314.40 522.60 L 304.90 518.90 L 295.70 514.90 L 286.70 510.40 L 278.00 505.60 L 269.40 500.30 L 261.20 494.80 L 253.10 488.90 L 245.30 482.70 L 235.20 473.90 L 225.50 464.70 L 216.20 455.10 L 207.30 445.10 L 198.80 434.80 L 190.70 424.10 L 175.10 437.50 L 159.80 451.40 L 129.90 479.60 Z M 487.10 436.10 L 481.40 438.90 L 476.00 442.10 L 471.00 445.70 L 466.40 449.80 L 462.00 454.30 L 458.10 459.00 L 454.50 464.10 L 451.40 469.40 L 448.60 475.00 L 446.30 480.80 L 444.50 486.70 L 443.00 492.80 L 442.10 498.90 L 441.60 505.10 L 441.60 511.20 L 442.20 517.40 L 443.20 523.50 L 444.80 529.50 L 447.00 535.40 L 452.60 546.50 L 455.90 551.60 L 459.60 556.30 L 463.70 560.60 L 468.20 564.70 L 473.00 568.30 L 478.00 571.60 L 483.30 574.50 L 488.80 577.00 L 494.50 579.10 L 500.20 580.70 L 506.10 581.90 L 512.10 582.70 L 518.10 582.90 L 524.10 582.70 L 530.00 582.00 L 535.90 580.80 L 541.60 579.00 L 547.20 576.70 L 558.30 570.70 L 563.40 567.10 L 568.10 563.10 L 572.50 558.70 L 576.40 553.90 L 579.90 548.90 L 583.00 543.60 L 585.70 538.00 L 587.90 532.20 L 589.70 526.30 L 591.10 520.20 L 591.90 514.10 L 592.40 507.90 L 592.30 501.70 L 591.70 495.50 L 590.70 489.40 L 589.10 483.40 L 587.10 477.60 L 584.50 471.90 L 578.40 461.70 L 575.20 457.40 L 571.60 453.40 L 567.80 449.60 L 559.30 443.10 L 554.70 440.30 L 544.90 435.70 L 534.70 432.50 L 529.40 431.40 L 524.00 430.70 L 513.30 430.40 L 502.60 431.50 L 497.30 432.60 L 492.20 434.20 L 487.10 436.10 Z M 727.60 537.40 L 759.50 557.70 L 767.70 562.30 L 776.20 566.50 L 782.80 565.60 L 789.10 564.30 L 795.20 562.70 L 801.00 560.70 L 808.60 557.50 L 815.90 553.80 L 823.00 549.50 L 829.80 544.80 L 836.30 539.80 L 842.70 534.30 L 851.90 525.70 L 869.40 507.10 L 894.30 479.00 L 875.90 461.30 L 838.40 426.60 L 831.60 438.00 L 824.50 449.20 L 817.00 460.20 L 809.00 471.00 L 800.70 481.30 L 791.90 491.20 L 784.90 498.30 L 777.70 505.00 L 770.20 511.50 L 762.30 517.50 L 754.20 523.20 L 745.70 528.40 L 736.90 533.10 L 727.60 537.40 Z M 279.40 592.30 L 271.30 599.40 L 263.60 606.80 L 256.30 614.50 L 249.40 622.50 L 242.80 630.70 L 230.50 648.00 L 224.90 657.00 L 217.80 669.30 L 211.30 681.90 L 205.20 694.70 L 199.50 707.70 L 194.30 720.90 L 189.40 734.20 L 200.60 731.30 L 211.90 728.80 L 234.50 725.10 L 257.40 722.70 L 274.60 721.50 L 326.40 719.10 L 334.10 718.20 L 341.60 716.90 L 349.00 715.20 L 356.10 713.10 L 363.20 710.60 L 371.80 707.00 L 380.10 702.90 L 388.10 698.30 L 395.90 693.10 L 403.40 687.50 L 410.50 681.50 L 417.30 675.10 L 423.90 668.30 L 430.00 661.20 L 435.80 653.80 L 441.20 646.10 L 446.20 638.10 L 450.80 629.80 L 455.00 621.40 L 458.80 612.90 L 462.20 604.10 L 455.40 598.60 L 449.00 592.80 L 443.00 586.80 L 437.30 580.40 L 432.00 573.70 L 427.00 566.70 L 422.30 559.50 L 418.00 552.10 L 414.00 544.40 L 410.40 536.50 L 398.50 538.20 L 386.60 540.40 L 374.90 543.10 L 363.20 546.30 L 351.80 550.00 L 340.50 554.30 L 324.10 561.80 L 308.30 570.60 L 300.80 575.40 L 293.40 580.70 L 286.30 586.30 L 279.40 592.30 Z M 566.70 607.60 L 570.00 616.20 L 573.70 624.70 L 577.90 633.10 L 582.60 641.30 L 587.60 649.20 L 593.00 656.90 L 598.80 664.20 L 605.00 671.30 L 611.60 678.00 L 618.40 684.30 L 625.60 690.20 L 633.10 695.70 L 641.00 700.70 L 649.10 705.20 L 657.40 709.10 L 666.00 712.50 L 673.10 714.80 L 680.30 716.70 L 687.60 718.10 L 695.10 719.10 L 702.80 719.80 L 746.20 721.20 L 760.60 722.10 L 775.00 723.50 L 800.00 727.00 L 821.30 731.50 L 831.80 734.30 L 828.50 722.10 L 824.60 710.10 L 820.10 698.30 L 815.00 686.70 L 809.40 675.30 L 803.20 664.30 L 796.60 653.60 L 789.40 643.20 L 781.70 633.10 L 773.60 623.50 L 765.10 614.30 L 756.10 605.50 L 746.70 597.20 L 736.90 589.40 L 726.70 582.10 L 716.20 575.30 L 707.50 570.30 L 698.60 565.70 L 689.60 561.40 L 680.30 557.60 L 670.80 554.20 L 661.20 551.20 L 651.40 548.70 L 641.50 546.60 L 631.40 545.00 L 621.10 543.80 L 615.90 553.10 L 610.20 562.00 L 604.10 570.60 L 597.40 578.80 L 590.40 586.60 L 582.90 594.00 L 575.00 601.00 L 566.70 607.60 Z M 430.00 716.80 L 429.20 724.50 L 429.00 731.90 L 429.30 739.00 L 430.30 745.80 L 431.80 752.60 L 433.70 759.30 L 436.00 765.70 L 438.80 772.10 L 443.00 780.30 L 447.80 788.30 L 453.10 796.20 L 464.70 811.40 L 499.50 851.30 L 508.30 861.90 L 537.80 828.90 L 547.60 817.30 L 553.90 809.40 L 565.50 793.20 L 570.70 784.70 L 575.40 776.10 L 579.40 767.30 L 582.00 760.60 L 584.20 753.70 L 585.90 746.70 L 587.10 739.50 L 587.90 732.30 L 588.00 724.90 L 587.60 717.20 L 586.60 709.30 L 580.70 697.70 L 555.30 652.30 L 549.50 640.70 L 545.90 632.80 L 542.80 624.70 L 540.00 616.40 L 522.20 616.40 L 504.50 615.90 L 486.80 614.90 L 483.90 624.40 L 480.50 633.60 L 476.60 642.50 L 467.50 659.70 L 454.50 680.40 L 430.00 716.80 Z M 630.90 742.20 L 628.60 762.80 L 627.90 773.20 L 633.20 777.10 L 644.10 783.90 L 649.80 786.70 L 657.60 790.00 L 665.50 792.80 L 673.70 795.20 L 690.50 798.80 L 711.90 802.00 L 750.10 806.40 L 742.50 760.40 L 729.70 760.80 L 717.10 760.50 L 704.40 759.80 L 691.90 758.50 L 679.40 756.50 L 667.00 753.90 L 657.90 751.60 L 648.80 748.80 L 639.80 745.70 L 630.90 742.20 Z M 274.60 761.40 L 266.50 806.70 L 300.50 802.90 L 323.30 799.70 L 334.50 797.40 L 341.80 795.40 L 349.00 793.10 L 356.10 790.50 L 362.90 787.40 L 369.60 783.70 L 378.60 778.10 L 380.60 776.50 L 383.40 772.70 L 385.10 768.30 L 385.90 764.60 L 387.10 749.20 L 387.70 745.60 L 376.70 749.10 L 365.60 752.10 L 354.40 754.60 L 343.20 756.80 L 331.90 758.40 L 317.60 760.00 L 303.30 761.00 L 289.00 761.50 L 274.60 761.40 Z" fill="#31363c" fill-rule="nonzero" node-id="34" stroke="none" target-height="836.4" target-width="880" target-x="72" target-y="94"></path><path d="M 129.90 479.60 L 159.80 451.40 L 175.10 437.50 L 190.70 424.10 L 198.80 434.80 L 207.40 445.10 L 216.20 455.10 L 225.50 464.70 L 235.20 473.90 L 245.30 482.70 L 253.10 488.90 L 261.20 494.80 L 269.40 500.30 L 278.00 505.60 L 286.70 510.40 L 295.70 514.90 L 304.90 518.90 L 314.40 522.60 L 296.30 533.50 L 260.70 556.50 L 251.60 561.70 L 242.30 566.60 L 235.00 564.80 L 228.00 562.60 L 221.30 560.00 L 214.80 556.90 L 206.40 552.40 L 198.40 547.30 L 190.60 541.60 L 183.20 535.60 L 175.90 529.20 L 168.90 522.50 L 158.80 512.00 L 148.90 501.20 L 129.90 479.60 Z" fill="#feffff" fill-rule="nonzero" node-id="36" stroke="none" target-height="142.49997" target-width="184.5" target-x="129.9" target-y="424.1"></path><path d="M 727.60 537.40 L 736.90 533.10 L 745.70 528.40 L 754.20 523.20 L 762.30 517.50 L 770.20 511.50 L 777.70 505.00 L 784.90 498.30 L 791.90 491.20 L 800.70 481.30 L 809.00 471.00 L 817.00 460.20 L 824.50 449.20 L 831.60 438.00 L 838.40 426.60 L 875.90 461.30 L 894.30 479.00 L 869.40 507.10 L 851.90 525.70 L 842.70 534.30 L 836.30 539.80 L 829.80 544.80 L 823.00 549.50 L 815.90 553.80 L 808.60 557.50 L 801.00 560.70 L 795.20 562.70 L 789.10 564.30 L 782.80 565.60 L 776.20 566.50 L 767.70 562.30 L 759.50 557.70 L 727.60 537.40 Z" fill="#feffff" fill-rule="nonzero" node-id="38" stroke="none" target-height="139.9" target-width="166.70001" target-x="727.6" target-y="426.6"></path><path d="M 265.70 259.20 L 306.00 262.60 L 328.40 265.30 L 345.90 269.00 L 354.40 271.60 L 362.90 274.70 L 374.00 279.80 L 376.50 281.50 L 380.50 285.50 L 383.50 290.30 L 385.30 294.40 L 390.80 311.60 L 392.40 315.50 L 377.80 312.30 L 363.10 309.70 L 348.30 307.70 L 333.50 306.30 L 318.70 305.40 L 303.80 305.10 L 288.90 305.40 L 274.00 306.30 L 265.70 259.20 Z" fill="#fdd6ef" fill-rule="nonzero" node-id="40" stroke="none" target-height="56.299988" target-width="126.69998" target-x="265.7" target-y="259.2"></path><path d="M 641.30 281.90 L 647.70 278.70 L 660.70 273.50 L 676.40 269.10 L 685.50 267.10 L 694.80 265.50 L 708.80 263.70 L 751.00 259.50 L 744.10 305.50 L 731.20 305.10 L 705.40 305.50 L 692.50 306.40 L 679.70 307.80 L 667.10 309.90 L 657.70 312.00 L 648.40 314.50 L 639.10 317.50 L 630.00 321.00 L 635.30 295.90 L 638.00 287.80 L 641.30 281.90 Z" fill="#fddaef" fill-rule="nonzero" node-id="42" stroke="none" target-height="61.5" target-width="121" target-x="630" target-y="259.5"></path><path d="M 487.10 436.10 L 492.20 434.20 L 497.30 432.60 L 502.60 431.50 L 513.30 430.40 L 524.00 430.70 L 529.40 431.40 L 534.70 432.50 L 544.90 435.70 L 554.70 440.30 L 559.30 443.10 L 567.80 449.60 L 571.60 453.40 L 575.20 457.40 L 578.40 461.70 L 584.50 471.90 L 587.10 477.60 L 589.10 483.40 L 590.70 489.40 L 591.70 495.50 L 592.30 501.70 L 592.40 507.90 L 591.90 514.10 L 591.10 520.20 L 589.70 526.30 L 587.90 532.20 L 585.70 538.00 L 583.00 543.60 L 579.90 548.90 L 576.40 553.90 L 572.50 558.70 L 568.10 563.10 L 563.40 567.10 L 558.30 570.70 L 547.20 576.70 L 541.60 579.00 L 535.90 580.80 L 530.00 582.00 L 524.10 582.70 L 518.10 582.90 L 512.10 582.70 L 506.10 581.90 L 500.20 580.70 L 494.50 579.10 L 488.80 577.00 L 483.30 574.50 L 478.00 571.60 L 473.00 568.30 L 468.20 564.70 L 463.70 560.60 L 459.60 556.30 L 455.90 551.60 L 452.60 546.50 L 447.00 535.40 L 444.80 529.50 L 443.20 523.50 L 442.20 517.40 L 441.60 511.20 L 441.60 505.10 L 442.10 498.90 L 443.00 492.80 L 444.50 486.70 L 446.30 480.80 L 448.60 475.00 L 451.40 469.40 L 454.50 464.10 L 458.10 459.00 L 462.00 454.30 L 466.40 449.80 L 471.00 445.70 L 476.00 442.10 L 481.40 438.90 L 487.10 436.10 Z" fill="#508c5b" fill-rule="nonzero" node-id="44" stroke="none" target-height="152.50003" target-width="150.80002" target-x="441.6" target-y="430.4"></path><path d="M 630.90 742.20 L 639.80 745.70 L 648.80 748.80 L 657.90 751.60 L 667.00 753.90 L 679.40 756.50 L 691.90 758.50 L 704.40 759.80 L 717.10 760.50 L 729.70 760.80 L 742.50 760.40 L 750.10 806.40 L 699.00 800.20 L 682.00 797.10 L 673.70 795.20 L 665.50 792.80 L 657.60 790.00 L 649.80 786.70 L 644.10 783.90 L 633.20 777.10 L 627.90 773.20 L 629.60 752.50 L 630.90 742.20 Z" fill="#fdd5e9" fill-rule="nonzero" node-id="46" stroke="none" target-height="64.20001" target-width="122.19995" target-x="627.9" target-y="742.2"></path><path d="M 274.60 761.40 L 289.00 761.50 L 303.30 761.00 L 317.60 760.00 L 331.90 758.40 L 343.20 756.80 L 354.40 754.60 L 365.60 752.10 L 376.70 749.10 L 387.70 745.60 L 387.10 749.20 L 385.90 764.60 L 385.10 768.30 L 383.40 772.70 L 380.60 776.50 L 378.60 778.10 L 369.60 783.70 L 362.90 787.40 L 356.10 790.50 L 349.00 793.10 L 334.50 797.40 L 323.30 799.70 L 300.50 802.90 L 266.50 806.70 L 274.60 761.40 Z" fill="#fdddf1" fill-rule="nonzero" node-id="48" stroke="none" target-height="61.100037" target-width="121.20001" target-x="266.5" target-y="745.6"></path></svg>